<?xml version="1.0" encoding="utf-8"?>
<!-- Svg Vector Icons : http://www.onlinewebfonts.com/icon -->
<!DOCTYPE svg PUBLIC "-//W3C//DTD SVG 1.1//EN" "http://www.w3.org/Graphics/SVG/1.1/DTD/svg11.dtd">
<svg version="1.1" xmlns="http://www.w3.org/2000/svg" xmlns:xlink="http://www.w3.org/1999/xlink" x="0px" y="0px" viewBox="0 0 256 256" enable-background="new 0 0 256 256" xml:space="preserve">
<metadata> Svg Vector Icons : http://www.onlinewebfonts.com/icon </metadata>
<g><g><g><g><path fill="#000000" d="M24.2,208.2h207.7c7.8,0,14.2-6.3,14.2-14.2s-6.3-14.2-14.2-14.2H24.2c-7.8,0-14.2,6.3-14.2,14.2S16.3,208.2,24.2,208.2z"/><path fill="#000000" d="M24.2,142.2h207.7c7.8,0,14.2-6.3,14.2-14.2s-6.3-14.2-14.2-14.2H24.2c-7.8,0-14.2,6.3-14.2,14.2S16.3,142.2,24.2,142.2z"/><path fill="#000000" d="M24.2,76.1h207.7c7.8,0,14.2-6.3,14.2-14.2s-6.3-14.2-14.2-14.2H24.2c-7.8,0-14.2,6.3-14.2,14.2S16.3,76.1,24.2,76.1z"/></g></g><g></g><g></g><g></g><g></g><g></g><g></g><g></g><g></g><g></g><g></g><g></g><g></g><g></g><g></g><g></g></g></g>
</svg>