<?xml version="1.0" encoding="utf-8"?>
<!-- Generator: Adobe Illustrator 18.0.0, SVG Export Plug-In . SVG Version: 6.00 Build 0)  -->
<!DOCTYPE svg PUBLIC "-//W3C//DTD SVG 1.1//EN" "http://www.w3.org/Graphics/SVG/1.1/DTD/svg11.dtd">
<svg version="1.1" id="Layer_1" xmlns="http://www.w3.org/2000/svg" xmlns:xlink="http://www.w3.org/1999/xlink" x="0px" y="0px"
	 viewBox="0 0 64 64" enable-background="new 0 0 64 64" xml:space="preserve">
<g>
	<g>
		<g>
			<path d="M45,6h-5c-0.9-3.5-4.2-6-7.9-6c-3.7,0-7.2,2.5-8.1,6h-5v11h26V6z M32,10c-1.1,0-2-0.9-2-2c0-1.1,0.9-2,2-2s2,0.9,2,2
				C34,9.1,33.1,10,32,10z"/>
		</g>
	</g>
	<g>
		<g>
			<path d="M52,11h-3v10H15V11h-3c-2.2,0-4,1.8-4,4v45c0,2.2,1.8,4,4,4h40c2.2,0,4-1.8,4-4V15C56,12.8,54.2,11,52,11z M21,48h-4v-4
				h4V48z M21,40h-4v-4h4V40z M21,32h-4v-4h4V32z M47,48H25v-4h22V48z M47,40H25v-4h22V40z M47,32H25v-4h22V32z"/>
		</g>
	</g>
</g>
</svg>
