<?xml version="1.0" encoding="utf-8"?>
<!-- Svg Vector Icons : http://www.onlinewebfonts.com/icon -->
<!DOCTYPE svg PUBLIC "-//W3C//DTD SVG 1.1//EN" "http://www.w3.org/Graphics/SVG/1.1/DTD/svg11.dtd">
<svg version="1.1" xmlns="http://www.w3.org/2000/svg" xmlns:xlink="http://www.w3.org/1999/xlink" x="0px" y="0px" viewBox="0 0 256 256" enable-background="new 0 0 256 256" xml:space="preserve">
<metadata> Svg Vector Icons : http://www.onlinewebfonts.com/icon </metadata>
<g><g><path fill="#000000" d="M171.3,190.5c-13.1,9.3-28.5,14-44.2,13.8c-2.1,0-4.1-0.1-6.2-0.3c-0.8-0.1-1.7-0.2-2.5-0.3c-1.6-0.2-3.2-0.4-4.8-0.7c-1-0.2-1.9-0.4-2.9-0.7c-1.5-0.4-3.1-0.7-4.6-1.2c-0.7-0.2-1.4-0.5-2.1-0.7c-1.7-0.6-3.4-1.2-5.1-1.9c-0.4-0.1-0.7-0.3-1.1-0.5c-2-0.9-3.9-1.8-5.8-2.8c-0.1,0-0.2-0.1-0.3-0.1c-6.3-3.5-12.1-7.9-17.1-13c-0.1-0.1-0.2-0.2-0.2-0.3c-1.6-1.6-3.1-3.3-4.5-5c-0.3-0.4-0.6-0.8-0.9-1.2c-10.3-13.1-16.5-29.6-16.5-47.6H70c0.5,0,0.9-0.2,1.1-0.7c0.2-0.4,0.2-0.9,0-1.3L41.7,81.3c-0.2-0.3-0.6-0.6-1.1-0.6s-0.8,0.2-1.1,0.6L10.2,126c-0.2,0.4-0.3,0.9,0,1.3c0.2,0.4,0.7,0.7,1.1,0.7h17.5c0,21.1,6.5,40.7,17.6,56.9c0.1,0.2,0.2,0.5,0.4,0.7c1.2,1.7,2.4,3.2,3.7,4.7c0.5,0.6,0.9,1.2,1.3,1.8c1.8,2.2,3.7,4.3,5.7,6.4c0.2,0.2,0.4,0.4,0.6,0.6c6.6,6.7,14.1,12.4,22.3,16.9c0.2,0.1,0.4,0.3,0.7,0.4c2.4,1.3,4.8,2.4,7.2,3.5c0.6,0.3,1.2,0.6,1.8,0.8c2.1,0.9,4.3,1.6,6.4,2.4c1,0.4,2,0.7,3.1,1c1.9,0.6,3.8,1,5.8,1.5c1.3,0.3,2.6,0.6,3.9,0.9c0.6,0.1,1.1,0.3,1.6,0.4c1.9,0.3,3.7,0.5,5.5,0.7c0.7,0.1,1.3,0.2,2,0.3c3.3,0.3,6.6,0.6,9.9,0.6c20.2,0,39.9-6.2,56.7-18.2c5.4-3.8,6.7-11.3,2.9-16.8C184.1,188,176.6,186.7,171.3,190.5 M227.2,128c0-21.1-6.5-40.6-17.5-56.8c-0.2-0.3-0.3-0.6-0.5-0.8c-1.4-2-2.9-3.8-4.3-5.7c-0.2-0.2-0.3-0.5-0.5-0.7c-10.1-12.4-22.7-21.9-37-28.2c-0.4-0.2-0.8-0.4-1.2-0.6c-2.3-0.9-4.6-1.8-7-2.6c-0.8-0.3-1.7-0.6-2.6-0.8c-2-0.6-4.1-1.1-6.2-1.6c-1.2-0.3-2.3-0.6-3.5-0.8c-0.6-0.1-1.1-0.3-1.7-0.4c-1.6-0.3-3.2-0.4-4.7-0.6c-1.1-0.1-2.1-0.3-3.3-0.4c-2.6-0.2-5.3-0.4-7.9-0.4c-0.5,0-0.9-0.1-1.4-0.1c-0.1,0-0.2,0-0.3,0c-20.1,0-39.8,6.2-56.6,18.1c-5.4,3.8-6.7,11.3-2.9,16.8c3.8,5.5,11.2,6.8,16.6,3c13-9.2,28.2-13.9,43.8-13.8c2.2,0,4.5,0.1,6.6,0.3c0.7,0.1,1.3,0.2,2,0.3c1.8,0.2,3.6,0.5,5.3,0.8c0.8,0.1,1.5,0.4,2.3,0.5c1.7,0.4,3.4,0.8,5.1,1.3c0.5,0.2,1.1,0.4,1.6,0.6c1.9,0.6,3.8,1.3,5.7,2.1c0.2,0.1,0.4,0.2,0.6,0.3c11.1,4.8,20.8,12.3,28.4,21.6c0,0,0.1,0.1,0.1,0.2c10.7,13.2,17.1,30,17.1,48.4h-17.5c-0.5,0-0.9,0.2-1.1,0.7c-0.2,0.4-0.2,0.9,0,1.3l29.4,44.7c0.2,0.3,0.6,0.6,1.1,0.6c0.4,0,0.8-0.2,1.1-0.6l29.4-44.7c0.3-0.4,0.3-0.9,0-1.3c-0.2-0.4-0.7-0.7-1.1-0.7H227.2L227.2,128L227.2,128z"/></g></g>
</svg>