<svg class="svg-icon" style="width: 1em; height: 1em;vertical-align: middle;fill: currentColor;overflow: hidden;" viewBox="0 0 1024 1024" version="1.1" xmlns="http://www.w3.org/2000/svg"><path d="M960 256 960 64l-192 0 0 64L192 128 192 64 0 64l0 192 64 0 0 512L0 768l0 192 192 0 0-64 576 0 0 64 192 0 0-192-64 0L896 256 960 256zM832 128l64 0 0 64-64 0L832 128zM64 128l64 0 0 64L64 192 64 128zM64 896l0-64 64 0 0 64L64 896zM896 896l-64 0 0-64 64 0L896 896zM832 768l-64 0 0 64L192 832l0-64L128 768 128 256l64 0L192 192l576 0 0 64 64 0L832 768zM704 352C704 369.664 689.664 384 672 384L512 384l0 288C512 689.664 497.664 704 480 704S448 689.664 448 672L448 384 288 384C270.336 384 256 369.664 256 352S270.336 320 288 320l384 0C689.664 320 704 334.336 704 352z"  /></svg>